STARTFONT 2.1
FONT -Adobe-ITC Souvenir-Demi-R-Normal--24-240-75-75-P-149-ISO8859-1
SIZE 24 75 75
FONTBOUNDINGBOX 36 30 -4 -5

STARTPROPERTIES 30
FOUNDRY "Adobe"
FAMILY_NAME "ITC Souvenir"
WEIGHT_NAME "Demi"
SLANT "R"
SETWIDTH_NAME "Normal"
ADD_STYLE_NAME ""
PIXEL_SIZE 24
POINT_SIZE 240
RESOLUTION_X 75
RESOLUTION_Y 75
SPACING "P"
AVERAGE_WIDTH 149
CHARSET_REGISTRY "ISO8859"
CHARSET_ENCODING "1"
CAP_HEIGHT 19
X_HEIGHT 12
FACE_NAME "ITC Souvenir Demi"
COPYRIGHT "Copyright (c) 1984, 1987 Adobe Systems Incorporated. All Rights Reserved. Copyright (c) 1988, 1991 Digital Equipment Corporation. All Rights Reserved."
NOTICE "ITC Souvenir is a registered trademark of International Typeface Corporation.  "
_DEC_DEVICE_FONTNAMES "PS=Souvenir-Demi"
_DEC_PRODUCTINFO "DECwindows Fonts V2.2, 07-Nov-1991"
RELATIVE_SETWIDTH 50
RELATIVE_WEIGHT 60
CHARSET_COLLECTIONS "ASCII ISO8859-1 ADOBE-STANDARD"
FULL_NAME "ITC Souvenir Demi"
WEIGHT 10
QUAD_WIDTH 16
DEFAULT_CHAR 32
FONT_DESCENT 5
FONT_ASCENT 22
ENDPROPERTIES

CHARS 191

STARTCHAR space
ENCODING 32
SWIDTH 340 0
DWIDTH 8 0
BBX 1 1 0 0
BITMAP
00
ENDCHAR

STARTCHAR exclam
ENCODING 33
SWIDTH 360 0
DWIDTH 9 0
BBX 5 19 2 0
BITMAP
F8
F8
F8
F8
F8
F8
F8
70
70
70
70
70
70
20
00
70
F8
F8
70
ENDCHAR

STARTCHAR quotedbl
ENCODING 34
SWIDTH 580 0
DWIDTH 14 0
BBX 9 9 2 10
BITMAP
E380
E380
E380
E380
E380
C300
C300
C300
C300
ENDCHAR

STARTCHAR numbersign
ENCODING 35
SWIDTH 680 0
DWIDTH 17 0
BBX 15 14 0 2
BITMAP
030C
071C
0618
3FFE
3FFE
0E38
0C30
1C70
FFFC
FFFC
30C0
30C0
71C0
6180
ENDCHAR

STARTCHAR dollar
ENCODING 36
SWIDTH 680 0
DWIDTH 17 0
BBX 12 23 3 -3
BITMAP
0600
0600
1F80
7FE0
70E0
E060
E060
F000
FC00
FF00
7FC0
3FE0
07F0
01F0
00F0
C0F0
C0F0
E1E0
FFE0
7F80
0C00
0C00
0C00
ENDCHAR

STARTCHAR percent
ENCODING 37
SWIDTH 940 0
DWIDTH 23 0
BBX 20 19 1 0
BITMAP
3E0000
770180
E38380
E38700
E38600
E38E00
E39C00
E3B800
E3B7C0
776EE0
3EFC70
00DC70
019C70
039C70
071C70
061C70
0C1C70
1C0EE0
0007C0
ENDCHAR

STARTCHAR ampersand
ENCODING 38
SWIDTH 840 0
DWIDTH 21 0
BBX 19 19 1 0
BITMAP
03E000
0FF000
1E7800
1E3800
1E3800
1E7800
1FF000
1FE000
0F87C0
1FC7E0
3FE380
7BE300
F1F700
F1FE00
F0FC00
F87E00
7CFFE0
3FFFE0
1F87C0
ENDCHAR

STARTCHAR quoteright
ENCODING 39
SWIDTH 320 0
DWIDTH 8 0
BBX 4 7 2 12
BITMAP
60
F0
F0
70
30
60
40
ENDCHAR

STARTCHAR parenleft
ENCODING 40
SWIDTH 340 0
DWIDTH 9 0
BBX 7 24 1 -5
BITMAP
0E
0C
1C
3C
38
78
78
78
F0
F0
F0
F0
F0
F0
F0
70
78
78
78
38
3C
1C
1C
0C
ENDCHAR

STARTCHAR parenright
ENCODING 41
SWIDTH 340 0
DWIDTH 9 0
BBX 7 24 0 -5
BITMAP
60
70
70
78
38
3C
3C
3C
1C
1E
1E
1E
1E
1E
1E
1E
3C
3C
3C
38
78
70
60
E0
ENDCHAR

STARTCHAR asterisk
ENCODING 42
SWIDTH 400 0
DWIDTH 10 0
BBX 7 9 1 10
BITMAP
38
38
D6
FE
38
FE
D6
38
38
ENDCHAR

STARTCHAR plus
ENCODING 43
SWIDTH 660 0
DWIDTH 16 0
BBX 13 13 2 1
BITMAP
0700
0700
0700
0700
0700
FFF8
FFF8
FFF8
0700
0700
0700
0700
0700
ENDCHAR

STARTCHAR comma
ENCODING 44
SWIDTH 340 0
DWIDTH 8 0
BBX 5 8 1 -4
BITMAP
70
F8
F8
78
38
30
60
40
ENDCHAR

STARTCHAR minus
ENCODING 45
SWIDTH 660 0
DWIDTH 17 0
BBX 12 3 2 6
BITMAP
FFF0
FFF0
FFF0
ENDCHAR

STARTCHAR period
ENCODING 46
SWIDTH 340 0
DWIDTH 8 0
BBX 5 4 1 0
BITMAP
70
F8
F8
70
ENDCHAR

STARTCHAR slash
ENCODING 47
SWIDTH 460 0
DWIDTH 12 0
BBX 11 23 0 -4
BITMAP
0060
0060
00C0
00C0
0180
0180
0180
0300
0300
0600
0600
0E00
0C00
0C00
1800
1800
3000
3000
3000
6000
6000
C000
C000
ENDCHAR

STARTCHAR zero
ENCODING 48
SWIDTH 680 0
DWIDTH 17 0
BBX 14 19 1 0
BITMAP
0780
1FE0
3CF0
3CF0
7878
7878
F87C
F87C
F87C
F87C
F87C
F87C
F87C
7878
7878
3CF0
3CF0
1FE0
0780
ENDCHAR

STARTCHAR one
ENCODING 49
SWIDTH 680 0
DWIDTH 17 0
BBX 10 19 3 0
BITMAP
0600
3F00
FF00
FF00
1F00
1F00
1F00
1F00
1F00
1F00
1F00
1F00
1F00
1F00
1F00
1F00
1F00
7FC0
7FC0
ENDCHAR

STARTCHAR two
ENCODING 50
SWIDTH 680 0
DWIDTH 17 0
BBX 14 19 1 0
BITMAP
0FE0
3FF0
7CF8
F07C
F07C
F07C
60FC
00F8
01F8
03F0
07E0
0FC0
1F80
3F00
3E04
7C0C
FFFC
FFFC
FFF8
ENDCHAR

STARTCHAR three
ENCODING 51
SWIDTH 680 0
DWIDTH 17 0
BBX 14 19 1 0
BITMAP
0FC0
3FE0
39F0
78F8
78F8
38F8
00F0
01F0
0FC0
0FF0
01F8
007C
007C
707C
F07C
F078
78F8
3FF0
0FC0
ENDCHAR

STARTCHAR four
ENCODING 52
SWIDTH 680 0
DWIDTH 17 0
BBX 14 19 1 0
BITMAP
00E0
01F0
03F0
07F0
0DF0
1DF0
19F0
39F0
71F0
61F0
E1F0
C1F0
FFFC
FFFC
01F0
01F0
01F0
03F8
03F8
ENDCHAR

STARTCHAR five
ENCODING 53
SWIDTH 680 0
DWIDTH 17 0
BBX 14 19 1 0
BITMAP
7FF8
7FF0
7FE0
7FC0
6000
6000
6000
6FC0
71F0
60F8
0078
007C
007C
607C
F07C
F078
F0F8
7FF0
1FC0
ENDCHAR

STARTCHAR six
ENCODING 54
SWIDTH 680 0
DWIDTH 17 0
BBX 14 19 1 0
BITMAP
01F8
07F0
0F00
1E00
3C00
7C00
7800
7BE0
FFF0
FCF8
F87C
F87C
F87C
F87C
F878
7878
7CF0
1FF0
0FC0
ENDCHAR

STARTCHAR seven
ENCODING 55
SWIDTH 680 0
DWIDTH 17 0
BBX 13 19 1 0
BITMAP
FFF8
FFF8
FFF0
E070
C0F0
80E0
01E0
01E0
01C0
03C0
03C0
0780
0780
0F80
0F80
1F00
1F00
3F00
3E00
ENDCHAR

STARTCHAR eight
ENCODING 56
SWIDTH 680 0
DWIDTH 17 0
BBX 14 19 1 0
BITMAP
07C0
1FF0
3C78
7838
7838
7838
7C78
7FF0
3FE0
1FF8
3FF8
79FC
F07C
F03C
F03C
703C
7CF8
3FF0
0FC0
ENDCHAR

STARTCHAR nine
ENCODING 57
SWIDTH 680 0
DWIDTH 17 0
BBX 14 19 1 0
BITMAP
0FC0
3FF0
3CF8
7878
F87C
F87C
F87C
F87C
787C
7CFC
3FFC
1F7C
0078
00F8
00F0
01E0
07C0
7F80
7C00
ENDCHAR

STARTCHAR colon
ENCODING 58
SWIDTH 340 0
DWIDTH 8 0
BBX 5 11 1 0
BITMAP
70
F8
F8
70
00
00
00
70
F8
F8
70
ENDCHAR

STARTCHAR semicolon
ENCODING 59
SWIDTH 340 0
DWIDTH 8 0
BBX 5 15 1 -4
BITMAP
70
F8
F8
70
00
00
00
70
F8
F8
78
38
30
60
40
ENDCHAR

STARTCHAR less
ENCODING 60
SWIDTH 660 0
DWIDTH 16 0
BBX 13 14 1 0
BITMAP
0038
00F8
03F0
0FC0
3F00
FC00
F000
F000
FC00
3F00
0FC0
03F0
00F8
0038
ENDCHAR

STARTCHAR equal
ENCODING 61
SWIDTH 660 0
DWIDTH 16 0
BBX 12 7 2 4
BITMAP
FFF0
FFF0
FFF0
0000
FFF0
FFF0
FFF0
ENDCHAR

STARTCHAR greater
ENCODING 62
SWIDTH 660 0
DWIDTH 16 0
BBX 13 14 1 0
BITMAP
E000
F800
7E00
1F80
07E0
01F8
0078
0078
01F8
07E0
1F80
7E00
F800
E000
ENDCHAR

STARTCHAR question
ENCODING 63
SWIDTH 540 0
DWIDTH 13 0
BBX 11 19 1 0
BITMAP
1F00
7FC0
F3C0
E1E0
E1E0
01E0
03E0
03E0
0FC0
1F80
1E00
1C00
1C00
1800
0000
1C00
3E00
3E00
1C00
ENDCHAR

STARTCHAR at
ENCODING 64
SWIDTH 860 0
DWIDTH 22 0
BBX 18 19 1 0
BITMAP
03FC00
0FFE00
1C0700
380380
70ED80
61FC80
63DCC0
C79CC0
C738C0
CF38C0
CE3980
CE7180
6EF300
67FE00
73B980
380380
1E0700
07FE00
01F800
ENDCHAR

STARTCHAR A
ENCODING 65
SWIDTH 740 0
DWIDTH 18 0
BBX 18 20 0 0
BITMAP
00E000
01E000
01F000
03F000
03F000
07F800
067800
067800
0E7C00
0C7C00
0C3C00
1C3E00
1FFE00
1FFE00
381F00
301F00
300F00
700F80
F81FC0
F81FC0
ENDCHAR

STARTCHAR B
ENCODING 66
SWIDTH 740 0
DWIDTH 18 0
BBX 17 19 1 0
BITMAP
FFF800
FFFE00
7C3E00
7C1F00
7C1F00
7C1F00
7C1E00
7C7C00
7DF000
7FFC00
7E3F00
7C1F00
7C0F80
7C0F80
7C0F80
7C0F00
7C1F00
FFFE00
FFF000
ENDCHAR

STARTCHAR C
ENCODING 67
SWIDTH 760 0
DWIDTH 19 0
BBX 17 19 1 0
BITMAP
01F800
07FE00
1F0F00
3E0700
3C0300
7C0300
780000
F80000
F80000
F80000
F80000
F80000
780000
7C0000
7C0180
3E0380
1F8F00
0FFE00
03F800
ENDCHAR

STARTCHAR D
ENCODING 68
SWIDTH 820 0
DWIDTH 20 0
BBX 19 19 1 0
BITMAP
FFF800
FFFE00
7C3F00
7C0F80
7C07C0
7C07C0
7C03E0
7C03E0
7C03E0
7C03E0
7C03E0
7C03E0
7C03E0
7C07C0
7C0780
7C0F80
7C3F00
FFFC00
FFF000
ENDCHAR

STARTCHAR E
ENCODING 69
SWIDTH 660 0
DWIDTH 16 0
BBX 15 19 1 0
BITMAP
FFFC
FFFC
7C1C
7C0C
7C00
7C00
7C00
7C30
7FF0
7FF0
7C30
7C00
7C00
7C00
7C00
7C06
7C0E
FFFE
FFFE
ENDCHAR

STARTCHAR F
ENCODING 70
SWIDTH 620 0
DWIDTH 15 0
BBX 14 19 1 0
BITMAP
FFFC
FFFC
7C1C
7C0C
7C00
7C00
7C00
7C30
7FF0
7FF0
7C30
7C00
7C00
7C00
7C00
7C00
7C00
FE00
FE00
ENDCHAR

STARTCHAR G
ENCODING 71
SWIDTH 780 0
DWIDTH 19 0
BBX 18 19 1 0
BITMAP
01FC00
0FFF00
1F8780
3E0380
7C0180
7C0180
7C0000
F80000
F80000
F83FC0
F83FC0
F803C0
7803C0
7C03C0
7C03C0
3E07C0
1F8F80
0FFF00
03FC00
ENDCHAR

STARTCHAR H
ENCODING 72
SWIDTH 820 0
DWIDTH 21 0
BBX 19 19 1 0
BITMAP
FE0FE0
FE0FE0
7C07C0
7C07C0
7C07C0
7C07C0
7C07C0
7C07C0
7FFFC0
7FFFC0
7C07C0
7C07C0
7C07C0
7C07C0
7C07C0
7C07C0
7C07C0
FE0FE0
FE0FE0
ENDCHAR

STARTCHAR I
ENCODING 73
SWIDTH 340 0
DWIDTH 8 0
BBX 7 19 0 0
BITMAP
FE
FE
7C
7C
7C
7C
7C
7C
7C
7C
7C
7C
7C
7C
7C
7C
7C
FE
FE
ENDCHAR

STARTCHAR J
ENCODING 74
SWIDTH 560 0
DWIDTH 14 0
BBX 13 19 0 0
BITMAP
03F8
03F8
01F0
01F0
01F0
01F0
01F0
01F0
01F0
01F0
01F0
31F0
79F0
F9F0
F1F0
E1F0
F3E0
7FE0
1F80
ENDCHAR

STARTCHAR K
ENCODING 75
SWIDTH 780 0
DWIDTH 19 0
BBX 18 19 1 0
BITMAP
FE1F80
FE1F80
7C0E00
7C1C00
7C3800
7C7000
7CE000
7DE000
7FF000
7FF000
7EF800
7C7C00
7C7C00
7C3E00
7C3F00
7C1F00
7C1F80
FE3FC0
FE3FC0
ENDCHAR

STARTCHAR L
ENCODING 76
SWIDTH 600 0
DWIDTH 15 0
BBX 14 19 1 0
BITMAP
FE00
FE00
7C00
7C00
7C00
7C00
7C00
7C00
7C00
7C00
7C00
7C00
7C00
7C00
7C00
7C0C
7C1C
FFFC
FFF8
ENDCHAR

STARTCHAR M
ENCODING 77
SWIDTH 920 0
DWIDTH 23 0
BBX 21 19 1 0
BITMAP
FE01F8
FE01F8
3F03F0
3F03F0
3F87F0
3F87F0
3F8FF0
37CDF0
37DDF0
33F9F0
33F9F0
33F9F0
31F1F0
31F1F0
30E1F0
30E1F0
3001F0
FC03F8
FC03F8
ENDCHAR

STARTCHAR N
ENCODING 78
SWIDTH 760 0
DWIDTH 19 0
BBX 17 19 1 0
BITMAP
FC0780
FE0780
3F0300
3F8300
3F8300
3FC300
37E300
33E300
33F300
31FB00
30FB00
30FF00
307F00
303F00
303F00
301F00
300F00
FC0F00
FC0700
ENDCHAR

STARTCHAR O
ENCODING 79
SWIDTH 860 0
DWIDTH 21 0
BBX 19 19 1 0
BITMAP
03F800
0FFE00
1F1F00
3E0F80
7C07C0
7C07C0
7803C0
F803E0
F803E0
F803E0
F803E0
F803E0
7803C0
7C07C0
7C07C0
3E0F80
1F1F00
0FFC00
03F800
ENDCHAR

STARTCHAR P
ENCODING 80
SWIDTH 680 0
DWIDTH 17 0
BBX 16 19 1 0
BITMAP
FFF0
FFFC
7C7E
7C3F
7C1F
7C1F
7C1F
7C1E
7C3E
7CFC
7FF8
7FC0
7C00
7C00
7C00
7C00
7C00
FE00
FE00
ENDCHAR

STARTCHAR Q
ENCODING 81
SWIDTH 860 0
DWIDTH 21 0
BBX 19 22 1 -3
BITMAP
03F800
0FFE00
1F1F00
3E0F80
7C07C0
7C07C0
7803C0
F803E0
F803E0
F803E0
F803E0
F803E0
7803C0
7C63C0
7C6780
3E6780
1FFF00
0FFE00
03F800
001FC0
000FE0
0003C0
ENDCHAR

STARTCHAR R
ENCODING 82
SWIDTH 740 0
DWIDTH 18 0
BBX 17 19 1 0
BITMAP
FFF800
FFFE00
7C3E00
7C1F00
7C1F00
7C1F00
7C3F00
7C3E00
7CFC00
7FF000
7FF800
7CFC00
7C7C00
7C3E00
7C3E00
7C1F00
7C1F00
FE3F80
FE3F80
ENDCHAR

STARTCHAR S
ENCODING 83
SWIDTH 680 0
DWIDTH 17 0
BBX 15 19 1 0
BITMAP
07E0
1FF8
3E3C
781C
780C
7C00
7F00
7FE0
7FF8
3FFC
0FFE
01FE
003E
C01E
E01E
F03C
7CFC
3FF8
0FE0
ENDCHAR

STARTCHAR T
ENCODING 84
SWIDTH 680 0
DWIDTH 17 0
BBX 15 19 1 0
BITMAP
FFFE
FFFE
E7CE
C7C6
07C0
07C0
07C0
07C0
07C0
07C0
07C0
07C0
07C0
07C0
07C0
07C0
07C0
0FE0
0FE0
ENDCHAR

STARTCHAR U
ENCODING 85
SWIDTH 760 0
DWIDTH 19 0
BBX 17 19 1 0
BITMAP
FE0F80
FE0780
7C0300
7C0300
7C0300
7C0300
7C0300
7C0300
7C0300
7C0300
7C0300
7C0300
7C0300
7C0300
3E0700
3E0600
1F1E00
1FFC00
07F000
ENDCHAR

STARTCHAR V
ENCODING 86
SWIDTH 740 0
DWIDTH 19 0
BBX 18 19 1 0
BITMAP
FE0FC0
FE0FC0
7C0380
7C0300
3C0300
3C0700
3E0700
3E0600
1E0E00
1F0E00
1F0C00
0F9C00
0F9800
079800
07F800
07F000
03F000
03E000
01E000
ENDCHAR

STARTCHAR W
ENCODING 87
SWIDTH 1000 0
DWIDTH 25 0
BBX 24 19 0 0
BITMAP
FE7F1F
FE7F1F
7C3E0E
7C3E0E
7C3E0E
3C3E0C
3C3E0C
3E3F0C
3E3F0C
3E3F1C
1E7F98
1F6F98
1F67B8
1FE7F8
0FC7F0
0FC3F0
0FC3F0
0783E0
0781E0
ENDCHAR

STARTCHAR X
ENCODING 88
SWIDTH 740 0
DWIDTH 18 0
BBX 17 19 1 0
BITMAP
FE1F00
FE1F00
7C0E00
3E1C00
3E1C00
1F3800
0FF000
0FE000
07E000
03E000
07F000
07F800
0EF800
1C7C00
187E00
383E00
701F00
F83F80
F83F80
ENDCHAR

STARTCHAR Y
ENCODING 89
SWIDTH 740 0
DWIDTH 18 0
BBX 17 19 1 0
BITMAP
FE0F80
FE0F80
7C0700
7C0700
3E0E00
1F0C00
1F1C00
0F9800
0FB800
07F000
03E000
03E000
03E000
03E000
03E000
03E000
03E000
07F000
07F000
ENDCHAR

STARTCHAR Z
ENCODING 90
SWIDTH 620 0
DWIDTH 15 0
BBX 14 19 1 0
BITMAP
7FFC
7FFC
707C
60F8
01F8
01F0
03F0
03E0
07C0
0FC0
0F80
1F80
3F00
3E00
7E00
7C0C
F81C
FFFC
FFFC
ENDCHAR

STARTCHAR bracketleft
ENCODING 91
SWIDTH 320 0
DWIDTH 8 0
BBX 6 24 1 -5
BITMAP
FC
FC
F0
F0
F0
F0
F0
F0
F0
F0
F0
F0
F0
F0
F0
F0
F0
F0
F0
F0
F0
F0
FC
FC
ENDCHAR

STARTCHAR backslash
ENCODING 92
SWIDTH 640 0
DWIDTH 16 0
BBX 9 19 3 0
BITMAP
C000
C000
6000
6000
3000
3000
3000
1800
1800
1C00
0C00
0C00
0600
0600
0600
0300
0300
0180
0180
ENDCHAR

STARTCHAR bracketright
ENCODING 93
SWIDTH 320 0
DWIDTH 8 0
BBX 6 24 0 -5
BITMAP
FC
FC
3C
3C
3C
3C
3C
3C
3C
3C
3C
3C
3C
3C
3C
3C
3C
3C
3C
3C
3C
3C
FC
FC
ENDCHAR

STARTCHAR asciicircum
ENCODING 94
SWIDTH 660 0
DWIDTH 16 0
BBX 14 14 1 5
BITMAP
0300
0780
0780
0FC0
0CC0
1CE0
1860
1860
3870
3030
7038
6018
E01C
E01C
ENDCHAR

STARTCHAR underscore
ENCODING 95
SWIDTH 500 0
DWIDTH 13 0
BBX 13 3 0 -4
BITMAP
FFF8
FFF8
FFF8
ENDCHAR

STARTCHAR quoteleft
ENCODING 96
SWIDTH 320 0
DWIDTH 8 0
BBX 4 7 2 12
BITMAP
20
60
C0
E0
F0
F0
60
ENDCHAR

STARTCHAR a
ENCODING 97
SWIDTH 580 0
DWIDTH 14 0
BBX 13 12 0 0
BITMAP
3F80
7FE0
71F0
00F0
1FF0
7FF0
F8F0
F0F0
F0F0
F9F0
7FF8
3E78
ENDCHAR

STARTCHAR b
ENCODING 98
SWIDTH 620 0
DWIDTH 15 0
BBX 14 19 0 0
BITMAP
7800
F800
F800
7800
7800
7800
7800
7BC0
7FF0
7C78
783C
783C
783C
783C
783C
783C
7C78
3FF0
0FC0
ENDCHAR

STARTCHAR c
ENCODING 99
SWIDTH 520 0
DWIDTH 13 0
BBX 12 12 0 0
BITMAP
0FC0
3FF0
7C70
7830
F000
F000
F000
F000
F810
7C30
3FE0
1F80
ENDCHAR

STARTCHAR d
ENCODING 100
SWIDTH 620 0
DWIDTH 15 0
BBX 14 19 0 0
BITMAP
0078
00F8
00F8
0078
0078
0078
0078
0FF8
3FF8
78F8
F078
F078
F078
F078
F078
F078
78F8
3FFC
0F3C
ENDCHAR

STARTCHAR e
ENCODING 101
SWIDTH 560 0
DWIDTH 14 0
BBX 13 12 0 0
BITMAP
0FE0
3FF0
78F8
7078
F078
F1F0
FFC0
FF00
F808
7C38
3FF0
1FC0
ENDCHAR

STARTCHAR f
ENCODING 102
SWIDTH 360 0
DWIDTH 9 0
BBX 8 19 1 0
BITMAP
1E
3F
7B
78
78
78
78
FE
FE
78
78
78
78
78
78
78
78
FC
FC
ENDCHAR

STARTCHAR g
ENCODING 103
SWIDTH 600 0
DWIDTH 15 0
BBX 13 17 1 -5
BITMAP
0FF8
3FF8
79E0
F0F0
F0F0
F0F0
F0F0
F0F0
79E0
3F80
1FE0
00F0
7070
F070
F8F0
FFE0
3FC0
ENDCHAR

STARTCHAR h
ENCODING 104
SWIDTH 620 0
DWIDTH 15 0
BBX 14 19 0 0
BITMAP
7800
F800
F800
7800
7800
7800
7800
7BE0
7FF0
7CF8
7878
7878
7878
7878
7878
7878
7878
FCFC
FCFC
ENDCHAR

STARTCHAR i
ENCODING 105
SWIDTH 300 0
DWIDTH 7 0
BBX 6 18 0 0
BITMAP
70
F8
F8
70
00
00
78
F8
F8
78
78
78
78
78
78
78
FC
FC
ENDCHAR

STARTCHAR j
ENCODING 106
SWIDTH 300 0
DWIDTH 7 0
BBX 7 23 -1 -5
BITMAP
1C
3E
3E
1C
00
00
1E
3E
3E
1E
1E
1E
1E
1E
1E
1E
1E
1E
1E
DE
FE
FC
78
ENDCHAR

STARTCHAR k
ENCODING 107
SWIDTH 600 0
DWIDTH 15 0
BBX 14 19 0 0
BITMAP
7800
F800
F800
7800
7800
7800
7800
78F8
7870
78E0
79C0
7F80
7F80
7FC0
79E0
78F0
7878
FCFC
FCFC
ENDCHAR

STARTCHAR l
ENCODING 108
SWIDTH 300 0
DWIDTH 7 0
BBX 6 19 0 0
BITMAP
78
F8
F8
78
78
78
78
78
78
78
78
78
78
78
78
78
78
FC
FC
ENDCHAR

STARTCHAR m
ENCODING 109
SWIDTH 920 0
DWIDTH 23 0
BBX 22 12 0 0
BITMAP
73E7E0
FFFFF0
FCFCF8
787878
787878
787878
787878
787878
787878
787878
FCFCFC
FCFCFC
ENDCHAR

STARTCHAR n
ENCODING 110
SWIDTH 620 0
DWIDTH 15 0
BBX 14 12 0 0
BITMAP
77E0
FFF0
FCF8
7878
7878
7878
7878
7878
7878
7878
FCFC
FCFC
ENDCHAR

STARTCHAR o
ENCODING 111
SWIDTH 620 0
DWIDTH 14 0
BBX 13 12 0 0
BITMAP
0F80
3FE0
78F0
F078
F078
F078
F078
F078
F078
78F0
3FE0
0F80
ENDCHAR

STARTCHAR p
ENCODING 112
SWIDTH 640 0
DWIDTH 15 0
BBX 14 17 0 -5
BITMAP
73C0
FFF0
FC78
783C
783C
783C
783C
783C
783C
7878
7BF0
79C0
7800
7800
7800
FC00
FC00
ENDCHAR

STARTCHAR q
ENCODING 113
SWIDTH 620 0
DWIDTH 15 0
BBX 14 17 0 -5
BITMAP
0F98
3FF8
78F8
F078
F078
F078
F078
F078
F078
78F8
3FF8
0F78
0078
0078
0078
00FC
00FC
ENDCHAR

STARTCHAR r
ENCODING 114
SWIDTH 440 0
DWIDTH 11 0
BBX 10 12 0 0
BITMAP
3980
FBC0
FFC0
3D80
3C00
3C00
3C00
3C00
3C00
3C00
7E00
7E00
ENDCHAR

STARTCHAR s
ENCODING 115
SWIDTH 500 0
DWIDTH 13 0
BBX 10 12 1 0
BITMAP
1F00
7F80
F1C0
F0C0
FE00
FF80
7FC0
0FC0
C3C0
E7C0
FF80
3E00
ENDCHAR

STARTCHAR t
ENCODING 116
SWIDTH 380 0
DWIDTH 10 0
BBX 9 16 0 0
BITMAP
1C00
1C00
1C00
3C00
FF80
FF80
3C00
3C00
3C00
3C00
3C00
3C00
3C00
3C00
3F80
1F80
ENDCHAR

STARTCHAR u
ENCODING 117
SWIDTH 620 0
DWIDTH 15 0
BBX 14 12 0 0
BITMAP
7878
F8F8
78F8
7878
7878
7878
7878
7878
7878
7CF8
7FFC
1F7C
ENDCHAR

STARTCHAR v
ENCODING 118
SWIDTH 540 0
DWIDTH 14 0
BBX 13 12 0 0
BITMAP
FC78
FC78
7830
7C30
7C70
3C60
3E60
1EC0
1FC0
0FC0
0F80
0700
ENDCHAR

STARTCHAR w
ENCODING 119
SWIDTH 800 0
DWIDTH 20 0
BBX 19 12 0 0
BITMAP
FDF9E0
FCF9E0
78F0C0
78F0C0
7CF9C0
3CF980
3CF980
3FFD80
1FBF00
1F3F00
1F1E00
0E1E00
ENDCHAR

STARTCHAR x
ENCODING 120
SWIDTH 560 0
DWIDTH 14 0
BBX 13 12 0 0
BITMAP
FCF0
FCF0
7CE0
3EC0
1F80
1F80
0F80
1FC0
3BE0
73F0
F1F8
F9F8
ENDCHAR

STARTCHAR y
ENCODING 121
SWIDTH 540 0
DWIDTH 14 0
BBX 13 17 0 -5
BITMAP
FC78
FC78
7830
7830
7830
7C70
7C70
3C60
3E60
3EE0
1FC0
0FC0
0180
0380
7F00
7E00
3800
ENDCHAR

STARTCHAR z
ENCODING 122
SWIDTH 500 0
DWIDTH 13 0
BBX 11 12 0 0
BITMAP
7FE0
7FE0
67C0
47C0
0F80
1F00
3F00
3E00
7C60
FC60
FFE0
FFC0
ENDCHAR

STARTCHAR braceleft
ENCODING 123
SWIDTH 340 0
DWIDTH 9 0
BBX 6 24 1 -5
BITMAP
3C
38
78
78
78
78
78
78
78
78
70
E0
70
78
78
78
78
78
78
78
78
78
38
3C
ENDCHAR

STARTCHAR bar
ENCODING 124
SWIDTH 660 0
DWIDTH 14 0
BBX 2 19 6 0
BITMAP
C0
C0
C0
C0
C0
C0
C0
C0
C0
C0
C0
C0
C0
C0
C0
C0
C0
C0
C0
ENDCHAR

STARTCHAR braceright
ENCODING 125
SWIDTH 340 0
DWIDTH 9 0
BBX 6 24 2 -5
BITMAP
F0
70
78
78
78
78
78
78
78
78
38
1C
38
78
78
78
78
78
78
78
78
78
70
F0
ENDCHAR

STARTCHAR asciitilde
ENCODING 126
SWIDTH 660 0
DWIDTH 16 0
BBX 14 5 1 5
BITMAP
1C08
7F1C
7FF8
E3F0
40E0
ENDCHAR

STARTCHAR space
ENCODING 160
SWIDTH 340 0
DWIDTH 8 0
BBX 1 1 0 0
BITMAP
00
ENDCHAR

STARTCHAR exclamdown
ENCODING 161
SWIDTH 360 0
DWIDTH 9 0
BBX 5 17 2 -5
BITMAP
70
F8
F8
70
00
20
70
70
70
70
F8
F8
F8
F8
F8
F8
F8
ENDCHAR

STARTCHAR cent
ENCODING 162
SWIDTH 680 0
DWIDTH 17 0
BBX 11 19 2 0
BITMAP
0600
0600
0600
0F00
3FC0
79E0
70C0
F000
F000
F000
F000
F820
78E0
7FC0
3F80
0600
0600
0600
0600
ENDCHAR

STARTCHAR sterling
ENCODING 163
SWIDTH 680 0
DWIDTH 17 0
BBX 15 19 1 0
BITMAP
07E0
0FF8
1E3C
3E3C
3C1C
3C00
3C00
3C00
FFE0
FFE0
3E00
1E00
1E00
1E00
1E06
3FFE
3FFC
FFFC
E1F8
ENDCHAR

STARTCHAR currency
ENCODING 164
SWIDTH 740 0
DWIDTH 17 0
BBX 12 14 2 1
BITMAP
CF30
FFF0
7FE0
70E0
E070
E070
C030
C030
C070
E070
70E0
7FE0
FFF0
CF30
ENDCHAR

STARTCHAR yen
ENCODING 165
SWIDTH 760 0
DWIDTH 17 0
BBX 18 19 -1 0
BITMAP
FE07C0
FE0780
7C0380
3E0700
3E0700
1F0E00
0F0C00
0F9C00
079800
07F800
1FFE00
1FFE00
01E000
1FFE00
1FFE00
01E000
01E000
03F000
03F000
ENDCHAR

STARTCHAR brokenbar
ENCODING 166
SWIDTH 660 0
DWIDTH 14 0
BBX 2 19 6 0
BITMAP
C0
C0
C0
C0
C0
C0
C0
00
00
00
00
C0
C0
C0
C0
C0
C0
C0
C0
ENDCHAR

STARTCHAR section
ENCODING 167
SWIDTH 600 0
DWIDTH 15 0
BBX 12 24 1 -5
BITMAP
0F80
3FE0
38E0
7060
7020
7800
7E00
7F80
3FE0
7FF0
E3F0
E0F0
F070
FC70
7F60
7FE0
1FF0
07F0
01F0
40F0
60E0
71E0
7FC0
1F00
ENDCHAR

STARTCHAR dieresis
ENCODING 168
SWIDTH 540 0
DWIDTH 14 0
BBX 9 4 2 14
BITMAP
6300
F780
F780
6300
ENDCHAR

STARTCHAR copyright
ENCODING 169
SWIDTH 840 0
DWIDTH 21 0
BBX 18 19 1 0
BITMAP
03F000
0F3C00
180600
30E300
63F980
471880
C618C0
CE00C0
8C0040
8C0040
8C0040
CC00C0
CE0CC0
471880
63F980
30E300
180700
0F3C00
07F800
ENDCHAR

STARTCHAR ordfeminine
ENCODING 170
SWIDTH 440 0
DWIDTH 11 0
BBX 9 11 1 8
BITMAP
7E00
6700
0700
7F00
F700
E700
FF00
7B80
0000
0000
FF80
ENDCHAR

STARTCHAR guillemotleft
ENCODING 171
SWIDTH 380 0
DWIDTH 10 0
BBX 8 9 0 3
BITMAP
11
33
77
66
EE
66
77
33
19
ENDCHAR

STARTCHAR logicalnot
ENCODING 172
SWIDTH 660 0
DWIDTH 16 0
BBX 13 8 1 3
BITMAP
FFF8
FFF8
FFF8
0038
0038
0038
0038
0038
ENDCHAR

STARTCHAR hyphen
ENCODING 173
SWIDTH 340 0
DWIDTH 9 0
BBX 7 3 0 6
BITMAP
FE
FE
FE
ENDCHAR

STARTCHAR registered
ENCODING 174
SWIDTH 840 0
DWIDTH 21 0
BBX 18 19 1 0
BITMAP
07F000
0F3C00
180E00
300300
6FF180
663980
C618C0
C618C0
8670C0
87E040
87F040
C630C0
C618C0
461880
6F3D80
300300
380600
0F3C00
07F000
ENDCHAR

STARTCHAR macron
ENCODING 175
SWIDTH 440 0
DWIDTH 11 0
BBX 7 3 2 14
BITMAP
FE
FE
FE
ENDCHAR

STARTCHAR degree
ENCODING 176
SWIDTH 400 0
DWIDTH 9 0
BBX 8 7 0 12
BITMAP
3C
66
C3
C3
C3
66
3C
ENDCHAR

STARTCHAR plusminus
ENCODING 177
SWIDTH 660 0
DWIDTH 16 0
BBX 11 14 3 1
BITMAP
0E00
0E00
0E00
0E00
FFE0
FFE0
FFE0
0E00
0E00
0E00
0000
FFE0
FFE0
FFE0
ENDCHAR

STARTCHAR twosuperior
ENCODING 178
SWIDTH 408 0
DWIDTH 10 0
BBX 8 11 1 8
BITMAP
7C
E6
C7
07
0E
0C
18
30
63
FF
FF
ENDCHAR

STARTCHAR threesuperior
ENCODING 179
SWIDTH 408 0
DWIDTH 10 0
BBX 8 11 1 8
BITMAP
7C
E6
C7
07
0E
3C
0E
07
C7
E6
7C
ENDCHAR

STARTCHAR acute
ENCODING 180
SWIDTH 380 0
DWIDTH 10 0
BBX 6 5 2 14
BITMAP
3C
38
70
60
C0
ENDCHAR

STARTCHAR mu
ENCODING 181
SWIDTH 620 0
DWIDTH 15 0
BBX 14 17 0 -5
BITMAP
7878
F8F8
78F8
7878
7878
7878
7878
7878
7878
7CF8
7FFC
6F7C
6000
E000
F000
F000
6000
ENDCHAR

STARTCHAR paragraph
ENCODING 182
SWIDTH 780 0
DWIDTH 20 0
BBX 18 24 0 -5
BITMAP
1FFFC0
3FFFC0
7C6600
F86600
F06600
F06600
F06600
F06600
786600
7C6600
3E6600
0FE600
01E600
006600
006600
006600
006600
006600
006600
006600
006600
006600
006600
006600
ENDCHAR

STARTCHAR periodcentered
ENCODING 183
SWIDTH 340 0
DWIDTH 8 0
BBX 5 4 1 5
BITMAP
70
F8
F8
70
ENDCHAR

STARTCHAR cedilla
ENCODING 184
SWIDTH 340 0
DWIDTH 9 0
BBX 5 6 2 -5
BITMAP
60
70
18
18
F8
70
ENDCHAR

STARTCHAR onesuperior
ENCODING 185
SWIDTH 408 0
DWIDTH 10 0
BBX 7 11 2 8
BITMAP
38
78
F8
38
38
38
38
38
38
38
FE
ENDCHAR

STARTCHAR ordmasculine
ENCODING 186
SWIDTH 440 0
DWIDTH 11 0
BBX 9 11 1 8
BITMAP
3E00
7700
E380
E380
E380
E380
7700
3E00
0000
0000
FF80
ENDCHAR

STARTCHAR guillemotright
ENCODING 187
SWIDTH 380 0
DWIDTH 10 0
BBX 8 9 1 3
BITMAP
88
CC
EE
66
77
66
EE
CC
88
ENDCHAR

STARTCHAR onequarter
ENCODING 188
SWIDTH 1020 0
DWIDTH 25 0
BBX 21 19 2 0
BITMAP
380180
780380
F80300
380600
380E00
380C00
381800
3838E0
3831E0
3863E0
FEC2E0
01C6E0
018CE0
030CE0
0718E0
061FF8
0C00E0
1C00E0
1801F0
ENDCHAR

STARTCHAR onehalf
ENCODING 189
SWIDTH 1020 0
DWIDTH 25 0
BBX 21 19 2 0
BITMAP
380180
780380
F80300
380600
380E00
380C00
381800
383800
3837E0
386E70
FECC70
01C070
0180F0
0300E0
0701C0
060380
0C0718
1C0FF8
180FF8
ENDCHAR

STARTCHAR threequarters
ENCODING 190
SWIDTH 1020 0
DWIDTH 25 0
BBX 22 19 1 0
BITMAP
7E00C0
E701C0
C70180
070300
0F0700
3C0600
0F0C00
071C70
C718F0
E731F0
7E6170
00E370
00C670
018670
038C70
030FFC
060070
0E0070
0C00F8
ENDCHAR

STARTCHAR questiondown
ENCODING 191
SWIDTH 540 0
DWIDTH 13 0
BBX 11 17 1 -5
BITMAP
0700
0F80
0F80
0700
0000
0300
0700
0700
0F00
3E00
7C00
F800
F0E0
F0E0
79E0
7FC0
1F00
ENDCHAR

STARTCHAR Agrave
ENCODING 192
SWIDTH 740 0
DWIDTH 18 0
BBX 18 25 0 0
BITMAP
0F0000
070000
038000
018000
000000
00E000
01E000
01F000
03F000
03F000
07F800
067800
067800
0E7C00
0C7C00
0C3C00
1C3E00
1FFE00
1FFE00
381F00
301F00
300F00
700F80
F81FC0
F81FC0
ENDCHAR

STARTCHAR Aacute
ENCODING 193
SWIDTH 740 0
DWIDTH 18 0
BBX 18 25 0 0
BITMAP
007800
007000
00E000
00C000
000000
00C000
01E000
01F000
03F000
03F000
07F800
067800
067800
0E7C00
0C7C00
0C3C00
1C3E00
1FFE00
1FFE00
381F00
301F00
300F00
700F80
F81FC0
F81FC0
ENDCHAR

STARTCHAR Acircumflex
ENCODING 194
SWIDTH 740 0
DWIDTH 18 0
BBX 18 25 0 0
BITMAP
006000
00F000
01F800
039C00
060600
00E000
01E000
01F000
03F000
03F000
07F800
067800
067800
0E7C00
0C7C00
0C3C00
1C3E00
1FFE00
1FFE00
381F00
301F00
300F00
700F80
F81FC0
F81FC0
ENDCHAR

STARTCHAR Atilde
ENCODING 195
SWIDTH 740 0
DWIDTH 18 0
BBX 18 25 0 0
BITMAP
038400
07FC00
0FF800
087000
000000
00E000
01E000
01F000
03F000
03F000
07F800
067800
067800
0E7C00
0C7C00
0C3C00
1C3E00
1FFE00
1FFE00
381F00
301F00
300F00
700F80
F81FC0
F81FC0
ENDCHAR

STARTCHAR Adieresis
ENCODING 196
SWIDTH 740 0
DWIDTH 18 0
BBX 18 25 0 0
BITMAP
031800
07BC00
07BC00
031800
000000
00E000
01E000
01F000
03F000
03F000
07F800
067800
067800
0E7C00
0C7C00
0C3C00
1C3E00
1FFE00
1FFE00
381F00
301F00
300F00
700F80
F81FC0
F81FC0
ENDCHAR

STARTCHAR Aring
ENCODING 197
SWIDTH 740 0
DWIDTH 18 0
BBX 18 25 0 0
BITMAP
00C000
01E000
033000
033000
01E000
00C000
01E000
01F000
03F000
03F000
07F800
067800
067800
0E7C00
0C7C00
0C3C00
1C3E00
1FFE00
1FFE00
381F00
301F00
300F00
700F80
F81FC0
F81FC0
ENDCHAR

STARTCHAR AE
ENCODING 198
SWIDTH 1020 0
DWIDTH 26 0
BBX 23 19 0 0
BITMAP
007FFC
00FFFC
01FE1C
01FE04
03BE00
033E00
073E00
063E18
0E3FF8
0E3FF8
0FFE18
1FFE00
183E00
383E00
383E00
303E06
703E0E
F87FFE
F87FFE
ENDCHAR

STARTCHAR Ccedilla
ENCODING 199
SWIDTH 760 0
DWIDTH 19 0
BBX 17 24 1 -5
BITMAP
01F800
07FE00
1F8F00
3E0700
3C0300
7C0300
780000
F80000
F80000
F80000
F80000
F80000
780000
7C0000
7C0180
3E0780
1F9F00
0FFE00
03F800
01C000
006000
006000
03E000
01C000
ENDCHAR

STARTCHAR Egrave
ENCODING 200
SWIDTH 660 0
DWIDTH 16 0
BBX 15 25 1 0
BITMAP
0F00
0700
0380
0180
00C0
0000
FFFC
FFFC
7C1C
7C0C
7C00
7C00
7C00
7C30
7FF0
7FF0
7C30
7C00
7C00
7C00
7C00
7C06
7C0E
FFFE
FFFE
ENDCHAR

STARTCHAR Eacute
ENCODING 201
SWIDTH 660 0
DWIDTH 16 0
BBX 15 25 1 0
BITMAP
00F0
00E0
01C0
0180
0300
0000
FFFC
FFFC
7C1C
7C0C
7C00
7C00
7C00
7C30
7FF0
7FF0
7C30
7C00
7C00
7C00
7C00
7C06
7C0E
FFFE
FFFE
ENDCHAR

STARTCHAR Ecircumflex
ENCODING 202
SWIDTH 660 0
DWIDTH 16 0
BBX 15 25 1 0
BITMAP
0180
03C0
07E0
0E70
1818
0000
FFFC
FFFC
7C1C
7C0C
7C00
7C00
7C00
7C30
7FF0
7FF0
7C30
7C00
7C00
7C00
7C00
7C06
7C0E
FFFE
FFFE
ENDCHAR

STARTCHAR Edieresis
ENCODING 203
SWIDTH 660 0
DWIDTH 16 0
BBX 15 24 1 0
BITMAP
0C60
1EF0
1EF0
0C60
0000
FFFC
FFFC
7C1C
7C0C
7C00
7C00
7C00
7C30
7FF0
7FF0
7C30
7C00
7C00
7C00
7C00
7C06
7C0E
FFFE
FFFE
ENDCHAR

STARTCHAR Igrave
ENCODING 204
SWIDTH 340 0
DWIDTH 8 0
BBX 7 25 0 0
BITMAP
78
38
1C
0C
06
00
FE
FE
7C
7C
7C
7C
7C
7C
7C
7C
7C
7C
7C
7C
7C
7C
7C
FE
FE
ENDCHAR

STARTCHAR Iacute
ENCODING 205
SWIDTH 340 0
DWIDTH 8 0
BBX 7 25 0 0
BITMAP
1E
1C
38
30
60
00
FE
FE
7C
7C
7C
7C
7C
7C
7C
7C
7C
7C
7C
7C
7C
7C
7C
FE
FE
ENDCHAR

STARTCHAR Icircumflex
ENCODING 206
SWIDTH 340 0
DWIDTH 8 0
BBX 10 25 -1 0
BITMAP
0C00
1E00
3F00
7380
C0C0
0000
7F00
7F00
3E00
3E00
3E00
3E00
3E00
3E00
3E00
3E00
3E00
3E00
3E00
3E00
3E00
3E00
3E00
7F00
7F00
ENDCHAR

STARTCHAR Idieresis
ENCODING 207
SWIDTH 340 0
DWIDTH 8 0
BBX 9 24 -1 0
BITMAP
6300
F780
F780
6300
0000
7F00
7F00
3E00
3E00
3E00
3E00
3E00
3E00
3E00
3E00
3E00
3E00
3E00
3E00
3E00
3E00
3E00
7F00
7F00
ENDCHAR

STARTCHAR Eth
ENCODING 208
SWIDTH 820 0
DWIDTH 20 0
BBX 19 19 1 0
BITMAP
7FF800
7FFE00
3E3F00
3E0F80
3E07C0
3E07C0
3E03C0
3E03E0
FFC3E0
FFC3E0
3E03E0
3E03E0
3E03C0
3E07C0
3E07C0
3E0F80
3E3F80
7FFE00
7FF800
ENDCHAR

STARTCHAR Ntilde
ENCODING 209
SWIDTH 760 0
DWIDTH 19 0
BBX 17 25 1 0
BITMAP
038400
07FC00
0FF800
087000
000000
000000
FC0780
FE0780
3F0300
3F8300
3F8300
3FC300
37E300
33E300
33F300
31FB00
30FB00
30FF00
307F00
303F00
303F00
301F00
300F00
FC0F00
FC0700
ENDCHAR

STARTCHAR Ograve
ENCODING 210
SWIDTH 860 0
DWIDTH 21 0
BBX 19 25 1 0
BITMAP
078000
038000
01C000
00C000
006000
000000
03F800
0FFE00
1F1F00
3E0F80
7C07C0
7C07C0
7803C0
F803E0
F803E0
F803E0
F803E0
F803E0
7803C0
7C07C0
7C07C0
3E0F80
1F1F00
0FFC00
03F800
ENDCHAR

STARTCHAR Oacute
ENCODING 211
SWIDTH 860 0
DWIDTH 21 0
BBX 19 25 1 0
BITMAP
003C00
003800
007000
006000
00C000
000000
03F800
0FFE00
1F1F00
3E0F80
7C07C0
7C07C0
7803C0
F803E0
F803E0
F803E0
F803E0
F803E0
7803C0
7C07C0
7C07C0
3E0F80
1F1F00
0FFC00
03F800
ENDCHAR

STARTCHAR Ocircumflex
ENCODING 212
SWIDTH 860 0
DWIDTH 21 0
BBX 19 25 1 0
BITMAP
006000
00F000
01F800
039C00
060600
000000
03F800
0FFE00
1F1F00
3E0F80
7C07C0
7C07C0
7803C0
F803E0
F803E0
F803E0
F803E0
F803E0
7803C0
7C07C0
7C07C0
3E0F80
1F1F00
0FFC00
03F800
ENDCHAR

STARTCHAR Otilde
ENCODING 213
SWIDTH 860 0
DWIDTH 21 0
BBX 19 24 1 0
BITMAP
01C200
03FE00
07FC00
043800
000000
03F800
0FFE00
1F1F00
3E0F80
7C07C0
7C07C0
7803C0
F803E0
F803E0
F803E0
F803E0
F803E0
7803C0
7C07C0
7C07C0
3E0F80
1F1F00
0FFC00
03F800
ENDCHAR

STARTCHAR Odieresis
ENCODING 214
SWIDTH 860 0
DWIDTH 21 0
BBX 19 24 1 0
BITMAP
030C00
079E00
079E00
030C00
000000
03FC00
0FFE00
1F1F00
3E0F80
7C07C0
7C07C0
7803C0
F803E0
F803E0
F803E0
F803E0
F803E0
7803C0
7C07C0
7C07C0
3E0F80
1F1F00
0FFC00
03F800
ENDCHAR

STARTCHAR multiply
ENCODING 215
SWIDTH 660 0
DWIDTH 16 0
BBX 14 13 1 0
BITMAP
6010
F038
7878
3CF0
1FE0
0FC0
0780
0FC0
1FE0
3CF0
7878
F03C
6018
ENDCHAR

STARTCHAR Oslash
ENCODING 216
SWIDTH 860 0
DWIDTH 22 0
BBX 19 19 1 0
BITMAP
03FB00
0FFE00
1F1F00
3E0F80
7C1FC0
7C1BC0
7833C0
F873E0
F863E0
F8C3E0
F983E0
F983E0
FB03C0
7E07C0
7E07C0
3C0F80
1E1F00
1FFE00
33F800
ENDCHAR

STARTCHAR Ugrave
ENCODING 217
SWIDTH 760 0
DWIDTH 19 0
BBX 17 25 1 0
BITMAP
078000
038000
01C000
00C000
006000
000000
FE0F80
FE0780
7C0300
7C0300
7C0300
7C0300
7C0300
7C0300
7C0300
7C0300
7C0300
7C0300
7C0300
7C0300
3E0700
3E0600
1F1E00
1FFC00
07F000
ENDCHAR

STARTCHAR Uacute
ENCODING 218
SWIDTH 760 0
DWIDTH 19 0
BBX 17 25 1 0
BITMAP
001E00
001C00
003800
003000
006000
000000
FE0F80
FE0780
7C0300
7C0300
7C0300
7C0300
7C0300
7C0300
7C0300
7C0300
7C0300
7C0300
7C0300
7C0300
3E0700
3E0600
1F1E00
1FFC00
07F000
ENDCHAR

STARTCHAR Ucircumflex
ENCODING 219
SWIDTH 760 0
DWIDTH 19 0
BBX 17 25 1 0
BITMAP
00C000
01E000
03F000
073800
0C0C00
000000
FE0F80
FE0780
7C0300
7C0300
7C0300
7C0300
7C0300
7C0300
7C0300
7C0300
7C0300
7C0300
7C0300
7C0300
3E0700
3E0600
1F1E00
1FFC00
07F000
ENDCHAR

STARTCHAR Udieresis
ENCODING 220
SWIDTH 760 0
DWIDTH 19 0
BBX 17 24 1 0
BITMAP
031800
07BC00
07BC00
031800
000000
FE0F80
FE0780
7C0300
7C0300
7C0300
7C0300
7C0300
7C0300
7C0300
7C0300
7C0300
7C0300
7C0300
7C0300
3E0700
3E0600
1F1E00
1FFC00
07F000
ENDCHAR

STARTCHAR Yacute
ENCODING 221
SWIDTH 740 0
DWIDTH 18 0
BBX 17 25 1 0
BITMAP
003C00
003800
007000
006000
00C000
000000
FE0F80
FE0F80
7C0700
7C0700
3E0E00
1F0C00
1F1C00
0F9800
0FB800
07F000
03E000
03E000
03E000
03E000
03E000
03E000
03E000
07F000
07F000
ENDCHAR

STARTCHAR Thorn
ENCODING 222
SWIDTH 680 0
DWIDTH 17 0
BBX 16 19 0 0
BITMAP
FE00
FE00
7C00
7FF0
7FFC
7C7E
7C3F
7C1F
7C1F
7C1F
7C3E
7C7E
7DFC
7FF8
7FC0
7C00
7C00
FE00
FE00
ENDCHAR

STARTCHAR germandbls
ENCODING 223
SWIDTH 660 0
DWIDTH 16 0
BBX 14 19 1 0
BITMAP
0FC0
3FF0
3CF8
7878
7878
7878
78F8
79F0
7BC0
7BE0
79F8
7878
783C
783C
7B3C
7B3C
7BFC
FBF8
F9F0
ENDCHAR

STARTCHAR agrave
ENCODING 224
SWIDTH 580 0
DWIDTH 14 0
BBX 12 19 1 0
BITMAP
1E00
0E00
0700
0300
0180
0000
0000
3F00
7FC0
73E0
01E0
1FE0
7FE0
F9E0
F1E0
F1E0
F3E0
7FF0
3CF0
ENDCHAR

STARTCHAR aacute
ENCODING 225
SWIDTH 580 0
DWIDTH 14 0
BBX 12 19 1 0
BITMAP
0780
0700
0E00
0C00
1800
0000
0000
3F00
7FC0
73E0
01E0
1FE0
7FE0
F9E0
F1E0
F1E0
F3E0
7FF0
3CF0
ENDCHAR

STARTCHAR acircumflex
ENCODING 226
SWIDTH 580 0
DWIDTH 14 0
BBX 12 19 1 0
BITMAP
0600
0F00
1F80
39C0
6060
0000
0000
3F00
7FC0
73E0
01E0
1FE0
7FE0
F9E0
F1E0
F1E0
F3E0
7FF0
3CF0
ENDCHAR

STARTCHAR atilde
ENCODING 227
SWIDTH 580 0
DWIDTH 14 0
BBX 12 18 1 0
BITMAP
1C20
3FE0
7FC0
4380
0000
0000
3F00
7FC0
73E0
01E0
1FE0
7FE0
F9E0
F1E0
F1E0
F3E0
7FF0
3CF0
ENDCHAR

STARTCHAR adieresis
ENCODING 228
SWIDTH 580 0
DWIDTH 14 0
BBX 12 18 1 0
BITMAP
3180
7BC0
7BC0
3180
0000
0000
3F00
7FC0
73E0
01E0
1FE0
7FE0
F9E0
F1E0
F1E0
F3E0
7FF0
3CF0
ENDCHAR

STARTCHAR aring
ENCODING 229
SWIDTH 580 0
DWIDTH 14 0
BBX 12 19 1 0
BITMAP
0600
0F00
1980
1980
0F00
0600
0000
3F00
7FC0
73E0
01E0
1FE0
7FE0
F9E0
F1E0
F1E0
F3E0
7FF0
3CF0
ENDCHAR

STARTCHAR ae
ENCODING 230
SWIDTH 880 0
DWIDTH 22 0
BBX 20 12 1 0
BITMAP
1F8FC0
7FDFE0
71F8F0
00F8F0
0FF1F0
3FFFE0
7CFF80
F0F000
F0F810
FBFC30
7FBFE0
3F1F80
ENDCHAR

STARTCHAR ccedilla
ENCODING 231
SWIDTH 520 0
DWIDTH 13 0
BBX 12 17 0 -5
BITMAP
0FC0
3FF0
7C70
7830
F000
F000
F000
F000
F810
7C30
3FE0
1F80
0700
0180
0180
0F80
0700
ENDCHAR

STARTCHAR egrave
ENCODING 232
SWIDTH 560 0
DWIDTH 14 0
BBX 12 19 1 0
BITMAP
1E00
0E00
0700
0300
0180
0000
0000
0FC0
3FE0
7CF0
78F0
F1F0
F7E0
FFC0
FF00
F810
7C30
3FE0
1F80
ENDCHAR

STARTCHAR eacute
ENCODING 233
SWIDTH 560 0
DWIDTH 14 0
BBX 12 19 1 0
BITMAP
0780
0700
0E00
0C00
1800
0000
0000
0FC0
3FE0
7CF0
78F0
F1F0
F7E0
FFC0
FF00
F810
7C30
3FE0
1F80
ENDCHAR

STARTCHAR ecircumflex
ENCODING 234
SWIDTH 560 0
DWIDTH 14 0
BBX 12 19 1 0
BITMAP
0600
0F00
1F80
39C0
6060
0000
0000
0FC0
3FE0
7CF0
78F0
F1F0
F7E0
FFC0
FF00
F810
7C30
3FE0
1F80
ENDCHAR

STARTCHAR edieresis
ENCODING 235
SWIDTH 560 0
DWIDTH 14 0
BBX 12 18 1 0
BITMAP
3180
7BC0
7BC0
3180
0000
0000
0FC0
3FE0
7CF0
78F0
F1F0
F7E0
FFC0
FF00
F810
7C30
3FE0
1F80
ENDCHAR

STARTCHAR igrave
ENCODING 236
SWIDTH 300 0
DWIDTH 8 0
BBX 6 19 1 0
BITMAP
F0
70
38
18
0C
00
00
78
F8
F8
78
78
78
78
78
78
78
FC
FC
ENDCHAR

STARTCHAR iacute
ENCODING 237
SWIDTH 300 0
DWIDTH 8 0
BBX 6 19 1 0
BITMAP
3C
38
70
60
C0
00
00
78
F8
F8
78
78
78
78
78
78
78
FC
FC
ENDCHAR

STARTCHAR icircumflex
ENCODING 238
SWIDTH 300 0
DWIDTH 8 0
BBX 10 19 -1 0
BITMAP
0C00
1E00
3F00
7380
C0C0
0000
0000
1E00
3E00
3E00
1E00
1E00
1E00
1E00
1E00
1E00
1E00
3F00
3F00
ENDCHAR

STARTCHAR idieresis
ENCODING 239
SWIDTH 300 0
DWIDTH 8 0
BBX 9 18 0 0
BITMAP
6300
F780
F780
6300
0000
0000
3C00
7C00
7C00
3C00
3C00
3C00
3C00
3C00
3C00
3C00
7E00
7E00
ENDCHAR

STARTCHAR eth
ENCODING 240
SWIDTH 660 0
DWIDTH 14 0
BBX 13 18 0 0
BITMAP
00C0
7B80
0F00
1F80
31C0
00E0
0FF0
3FF0
78F8
F078
F078
F078
F078
F078
F078
78F0
3FE0
0F80
ENDCHAR

STARTCHAR ntilde
ENCODING 241
SWIDTH 620 0
DWIDTH 16 0
BBX 14 18 1 0
BITMAP
0E10
1FF0
3FE0
21C0
0000
0000
77E0
FFF0
FCF8
7878
7878
7878
7878
7878
7878
7878
FCFC
FCFC
ENDCHAR

STARTCHAR ograve
ENCODING 242
SWIDTH 620 0
DWIDTH 15 0
BBX 13 19 1 0
BITMAP
1E00
0E00
0700
0300
0180
0000
0000
0F80
3FE0
78F0
F8F8
F078
F078
F078
F078
F8F8
78F0
3FE0
0F80
ENDCHAR

STARTCHAR oacute
ENCODING 243
SWIDTH 620 0
DWIDTH 15 0
BBX 13 19 1 0
BITMAP
01E0
01C0
0380
0300
0600
0000
0000
0F80
3FE0
78F0
F8F8
F078
F078
F078
F078
F8F8
78F0
3FE0
0F80
ENDCHAR

STARTCHAR ocircumflex
ENCODING 244
SWIDTH 620 0
DWIDTH 15 0
BBX 13 19 1 0
BITMAP
0600
0F00
1F80
39C0
6060
0000
0000
0F80
3FE0
78F0
F8F8
F078
F078
F078
F078
F8F8
78F0
3FE0
0F80
ENDCHAR

STARTCHAR otilde
ENCODING 245
SWIDTH 620 0
DWIDTH 15 0
BBX 13 18 1 0
BITMAP
0E10
1FF0
3FE0
21C0
0000
0000
0F80
3FE0
78F0
F8F8
F078
F078
F078
F078
F8F8
78F0
3FE0
0F80
ENDCHAR

STARTCHAR odieresis
ENCODING 246
SWIDTH 620 0
DWIDTH 15 0
BBX 13 18 1 0
BITMAP
18C0
3DE0
3DE0
18C0
0000
0000
0F80
3FE0
78F0
F8F8
F078
F078
F078
F078
F8F8
78F0
3FE0
0F80
ENDCHAR

STARTCHAR divide
ENCODING 247
SWIDTH 660 0
DWIDTH 16 0
BBX 12 13 2 1
BITMAP
0600
0F00
0F00
0600
0000
FFF0
FFF0
FFF0
0000
0600
0F00
0F00
0600
ENDCHAR

STARTCHAR oslash
ENCODING 248
SWIDTH 620 0
DWIDTH 14 0
BBX 13 14 0 -1
BITMAP
0020
0FE0
3FE0
78F0
F9F0
F178
F378
F678
FC78
7878
78F0
3FE0
3F80
2000
ENDCHAR

STARTCHAR ugrave
ENCODING 249
SWIDTH 620 0
DWIDTH 15 0
BBX 14 19 0 0
BITMAP
1E00
0E00
0700
0300
0180
0000
0000
7878
F8F8
78F8
7878
7878
7878
7878
7878
7878
7CF8
7FFC
1F7C
ENDCHAR

STARTCHAR uacute
ENCODING 250
SWIDTH 620 0
DWIDTH 15 0
BBX 14 19 0 0
BITMAP
01E0
01C0
0380
0300
0600
0000
0000
7878
F8F8
78F8
7878
7878
7878
7878
7878
7878
7CF8
7FFC
1F7C
ENDCHAR

STARTCHAR ucircumflex
ENCODING 251
SWIDTH 620 0
DWIDTH 15 0
BBX 14 19 0 0
BITMAP
0300
0780
0FC0
1CE0
3030
0000
0000
7878
F8F8
78F8
7878
7878
7878
7878
7878
7878
7CF8
7FFC
1F7C
ENDCHAR

STARTCHAR udieresis
ENCODING 252
SWIDTH 620 0
DWIDTH 15 0
BBX 14 18 0 0
BITMAP
18C0
3DE0
3DE0
18C0
0000
0000
7878
F8F8
78F8
7878
7878
7878
7878
7878
7878
7CF8
7FFC
1F7C
ENDCHAR

STARTCHAR yacute
ENCODING 253
SWIDTH 540 0
DWIDTH 14 0
BBX 13 24 0 -5
BITMAP
00F0
00E0
01C0
0180
0300
0000
0000
FC78
FC78
7830
7830
7830
7C70
7C70
3C60
3E60
3EE0
1FC0
0FC0
0180
0380
7F00
7E00
3800
ENDCHAR

STARTCHAR thorn
ENCODING 254
SWIDTH 640 0
DWIDTH 15 0
BBX 14 24 0 -5
BITMAP
7800
F800
F800
7800
7800
7800
7800
7BC0
7FF0
7C78
783C
783C
783C
783C
783C
783C
7878
7BF0
79C0
7800
7800
7800
FC00
FC00
ENDCHAR

STARTCHAR ydieresis
ENCODING 255
SWIDTH 540 0
DWIDTH 14 0
BBX 13 23 0 -5
BITMAP
18C0
3DE0
3DE0
18C0
0000
0000
FC78
FC78
7830
7830
7830
7C70
7C70
3C60
3E60
3EE0
1FC0
0FC0
0180
0380
7F00
7E00
3800
ENDCHAR
ENDFONT
